<svg width="34" height="35" viewBox="0 0 34 35" fill="none" xmlns="http://www.w3.org/2000/svg">
<path d="M12.9019 9.90808L12.2214 10.0651C12.2831 10.3333 12.2908 10.611 12.2441 10.8822C12.1974 11.1534 12.0973 11.4126 11.9496 11.6448C11.8018 11.8769 11.6094 12.0774 11.3835 12.2345C11.1576 12.3917 10.9028 12.5023 10.6337 12.5601C10.0882 12.6748 9.51935 12.571 9.04955 12.2708C8.57974 11.9707 8.24645 11.4982 8.1213 10.9549L6.7604 11.2341C6.57377 11.2748 6.39734 11.3529 6.24175 11.4638C6.08617 11.5746 5.95466 11.7158 5.85519 11.8789C5.75571 12.042 5.69033 12.2235 5.66299 12.4126C5.63565 12.6016 5.64692 12.7942 5.69611 12.9788C5.69611 12.9788 6.32422 15.8925 7.05701 19.1726" stroke="black" stroke-width="1.5" stroke-linecap="round" stroke-linejoin="round"/>
<path d="M25.9877 9.89062C25.8835 10.1844 25.7206 10.454 25.5091 10.683C25.2976 10.912 25.0418 11.0956 24.7572 11.2229C24.4727 11.3501 24.1652 11.4182 23.8535 11.4231C23.5418 11.428 23.2324 11.3696 22.9439 11.2514C22.6555 11.1332 22.394 10.9576 22.1754 10.7354C21.9568 10.5132 21.7856 10.2488 21.6722 9.95849C21.5587 9.66814 21.5054 9.35777 21.5154 9.0462C21.5255 8.73463 21.5987 8.42834 21.7306 8.14589L20.3173 7.48289C19.94 7.32562 19.5158 7.32352 19.1369 7.47705C18.758 7.63057 18.4549 7.92733 18.2934 8.30291L12.4311 22.1038L11.6634 23.8485C11.5062 24.2259 11.5041 24.6501 11.6576 25.029C11.8111 25.4079 12.1079 25.7109 12.4835 25.8724L19.5671 28.8908C19.9445 29.0481 20.3686 29.0502 20.7475 28.8966C21.1264 28.7431 21.4295 28.4464 21.591 28.0708L28.221 12.4728C28.3672 12.1101 28.3711 11.7056 28.232 11.3401C28.0929 10.9746 27.8211 10.6751 27.4707 10.5013L25.9877 9.89062Z" stroke="black" stroke-width="1.5" stroke-linecap="round" stroke-linejoin="round"/>
</svg>
