<svg width="17" height="17" viewBox="0 0 17 17" fill="none" xmlns="http://www.w3.org/2000/svg">
<path d="M6.45094 4.7041L6.11071 4.78261C6.14153 4.91671 6.14538 5.05558 6.12204 5.19118C6.09871 5.32677 6.04865 5.45637 5.97479 5.57245C5.90092 5.68852 5.80472 5.78876 5.69177 5.86733C5.57882 5.94589 5.45138 6.00122 5.31686 6.0301C5.04408 6.08748 4.75967 6.03555 4.52477 5.88548C4.28987 5.7354 4.12322 5.49916 4.06065 5.22752L3.3802 5.3671C3.28689 5.38746 3.19867 5.42653 3.12088 5.48194C3.04308 5.53735 2.97733 5.60796 2.92759 5.6895C2.87786 5.77104 2.84516 5.86181 2.83149 5.95634C2.81782 6.05086 2.82346 6.14718 2.84806 6.23947C2.84806 6.23947 3.16211 7.69632 3.5285 9.33638" stroke="black" stroke-width="0.75" stroke-linecap="round" stroke-linejoin="round"/>
<path d="M12.9934 4.69525C12.9412 4.84214 12.8598 4.97692 12.7541 5.09142C12.6483 5.20592 12.5204 5.29776 12.3781 5.36137C12.2358 5.42499 12.0821 5.45905 11.9263 5.4615C11.7704 5.46395 11.6157 5.43474 11.4715 5.37563C11.3272 5.31652 11.1965 5.22875 11.0872 5.11763C10.9779 5.00652 10.8923 4.87436 10.8356 4.72919C10.7789 4.58401 10.7522 4.42882 10.7572 4.27304C10.7622 4.11725 10.7988 3.96411 10.8648 3.82288L10.1582 3.49138C9.96949 3.41275 9.75741 3.4117 9.56795 3.48846C9.3785 3.56522 9.22696 3.7136 9.14623 3.9014L6.21507 10.8018L5.83123 11.6742C5.75259 11.8629 5.75154 12.075 5.82831 12.2644C5.90507 12.4539 6.05345 12.6054 6.24124 12.6861L9.78306 14.1953C9.97174 14.274 10.1838 14.275 10.3733 14.1983C10.5627 14.1215 10.7143 13.9731 10.795 13.7853L14.11 5.98636C14.1831 5.805 14.1851 5.60274 14.1155 5.41999C14.046 5.23725 13.9101 5.08747 13.7349 5.00058L12.9934 4.69525Z" stroke="black" stroke-width="0.75" stroke-linecap="round" stroke-linejoin="round"/>
</svg>
