<svg width="18" height="26" viewBox="0 0 18 26" fill="none" xmlns="http://www.w3.org/2000/svg">
<path d="M4.11037 9.64109V13.36M8.45868 14.1038V18.8641M8.45868 18.8641V23.6243C8.30338 24.2689 7.95666 25 6.71429 25C5.47191 25 5.25883 24.2689 5 23.6243V14.1038L4.11037 13.36M8.45868 18.8641C8.71751 19.2112 9.42152 19.9054 10.1669 19.9054C10.9124 19.9054 11.5128 19.5087 11.7199 19.3103V18.1203M11.7199 14.1038V18.1203M11.7199 18.1203C11.927 18.3682 12.4964 18.8641 13.1176 18.8641C13.7388 18.8641 14.3082 18.3682 14.5153 18.1203V16.7815M14.5153 14.1038V16.7815M14.5153 16.7815C14.6705 17.079 15.1364 17.674 15.7576 17.674C16.3788 17.674 16.8447 17.079 17 16.7815V10.3933C17 7.54159 16.9246 4.33382 14.8943 2.33133C14.1966 1.64324 13.2792 1.16178 12.0308 1.16178C10.5007 1.16178 8.64312 0.897345 6.78148 1.04463C2.45584 1.38686 1.00471 6.34324 1.00471 10.6824V10.6824C0.952943 11.922 1.31559 15.145 2.71312 15.145C3.80019 15.145 4.26567 13.7071 4.11037 13.36" stroke="#232323" stroke-width="1.5" stroke-linecap="round" stroke-linejoin="round"/>
</svg>
